control3min_grf.mot
version=1
nRows=27
nColumns 19
inDegrees=yes
endheader
time	1_ground_force_vx	1_ground_force_vy	1_ground_force_vz	1_ground_force_px	1_ground_force_py	1_ground_force_pz	1_ground_torque_x	1_ground_torque_y	1_ground_torque_z	2_ground_force_vx	2_ground_force_vy	2_ground_force_vz	2_ground_force_px	2_ground_force_py	2_ground_force_pz	2_ground_torque_x	2_ground_torque_y	2_ground_torque_z
            1.253500	           43.465375	          314.800645	          -10.039050	           -0.192642	            0.006475	           -0.462420	            0.026316	            0.190593	           -0.006078	           40.740567	          397.463670	           24.019346	           -0.191566	            0.005827	           -0.707513	            0.074201	            0.723904	            0.043747
            1.254000	           46.029624	          321.654186	          -10.703887	           -0.193141	            0.006472	           -0.461771	            0.064235	            0.448874	           -0.014937	           40.771276	          402.063691	           25.115099	           -0.191520	            0.005826	           -0.707137	            0.073841	            0.728176	            0.045486
            1.254500	           47.080177	          327.067275	          -11.829713	           -0.193623	            0.006471	           -0.461363	            0.048859	            0.339425	           -0.012277	           41.174626	          407.218825	           25.837239	           -0.191446	            0.005825	           -0.706876	            0.080706	            0.798182	            0.050643
            1.255000	           47.398429	          332.838591	          -12.447757	           -0.193281	            0.006470	           -0.461235	            0.018341	            0.128794	           -0.004817	           41.333426	          415.138085	           25.818485	           -0.191615	            0.005826	           -0.707393	            0.099418	            0.998516	            0.062100
            1.255500	           46.570696	          337.528288	          -13.113451	           -0.193206	            0.006471	           -0.461429	           -0.026282	           -0.190481	            0.007400	           40.420134	          421.579035	           26.123429	           -0.191629	            0.005827	           -0.707473	            0.108809	            1.134871	            0.070323
            1.256000	           45.469690	          342.395082	          -13.043994	           -0.193219	            0.006472	           -0.461610	           -0.043023	           -0.323975	            0.012342	           38.521506	          428.386115	           26.054681	           -0.191500	            0.005828	           -0.707605	            0.086330	            0.960046	            0.058391
            1.256500	           44.688115	          349.066501	          -13.426164	           -0.193540	            0.006470	           -0.461135	           -0.035546	           -0.277656	            0.010679	           35.870868	          435.925042	           26.552017	           -0.191160	            0.005830	           -0.708053	            0.073310	            0.890911	            0.054265
            1.257000	           44.227133	          354.296900	          -14.044593	           -0.193575	            0.006471	           -0.461425	           -0.005284	           -0.042330	            0.001678	           32.846761	          443.094334	           27.048199	           -0.190585	            0.005832	           -0.707911	            0.061783	            0.833439	            0.050876
            1.257500	           43.994882	          362.231297	          -14.651997	           -0.193744	            0.006467	           -0.460546	           -0.000411	           -0.003386	            0.000137	           30.150624	          450.264643	           27.591169	           -0.190555	            0.005833	           -0.708032	            0.064855	            0.968538	            0.059350
            1.258000	           43.992382	          367.822059	          -15.224162	           -0.193668	            0.006468	           -0.460716	            0.016294	            0.136236	           -0.005639	           27.594933	          457.436296	           27.899439	           -0.190288	            0.005834	           -0.708142	            0.070946	            1.176056	            0.071729
            1.258500	           42.156013	          374.854455	          -15.739736	           -0.193607	            0.006465	           -0.460122	           -0.018970	           -0.168684	            0.007083	           25.695805	          464.426116	           28.206773	           -0.189959	            0.005834	           -0.707929	            0.071055	            1.284248	            0.077998
            1.259000	           39.998597	          379.544289	          -16.493842	           -0.193564	            0.006467	           -0.460522	           -0.028008	           -0.265764	            0.011549	           23.185575	          471.966722	           28.375553	           -0.190038	            0.005835	           -0.708084	            0.064410	            1.311140	            0.078828
            1.259500	           36.878166	          387.838660	          -17.092532	           -0.193419	            0.006464	           -0.459904	           -0.037402	           -0.393351	            0.017335	           20.442484	          479.137699	           28.683902	           -0.189434	            0.005837	           -0.708273	            0.050102	            1.174311	            0.070301
            1.260000	           33.574402	          393.429767	          -17.885784	           -0.193163	            0.006465	           -0.460050	           -0.039651	           -0.464633	            0.021123	           17.133146	          487.412053	           28.855649	           -0.189248	            0.005838	           -0.708243	            0.034174	            0.972205	            0.057556
            1.260500	           30.774290	          401.184613	          -18.762725	           -0.193497	            0.006465	           -0.460021	           -0.038021	           -0.495658	            0.023181	           13.640455	          494.580324	           29.164318	           -0.188952	            0.005840	           -0.708563	            0.025423	            0.921799	            0.054356
            1.261000	           29.212440	          409.299186	          -19.411912	           -0.193437	            0.006463	           -0.459549	           -0.032181	           -0.450894	            0.021385	           10.150548	          501.010966	           29.751926	           -0.188517	            0.005841	           -0.708264	            0.022769	            1.123856	            0.066739
            1.261500	           27.833722	          415.612181	          -20.298563	           -0.193409	            0.006465	           -0.459954	           -0.024151	           -0.360629	            0.017613	            7.220119	          508.180764	           30.201140	           -0.188269	            0.005842	           -0.708416	            0.019107	            1.344838	            0.079924
            1.262000	           26.043082	          423.906220	          -20.762984	           -0.193315	            0.006463	           -0.459499	           -0.025176	           -0.409800	            0.020072	            4.989945	          516.088384	           31.028108	           -0.188162	            0.005844	           -0.708744	            0.014781	            1.528728	            0.091910
            1.262500	           23.702258	          431.299186	          -21.321617	           -0.193360	            0.006462	           -0.459441	           -0.020651	           -0.375775	            0.018577	            3.182523	          523.631026	           31.337373	           -0.188178	            0.005842	           -0.708405	            0.008867	            1.458910	            0.087310
            1.263000	           20.215132	          439.953821	          -21.871995	           -0.193222	            0.006461	           -0.459071	           -0.023536	           -0.512222	            0.025465	            1.326462	          531.724307	           32.117910	           -0.187770	            0.005844	           -0.708559	            0.003240	            1.298905	            0.078458
            1.263500	           16.680946	          448.430375	          -22.927447	           -0.193416	            0.006460	           -0.458924	           -0.024015	           -0.645582	            0.033007	           -1.465890	          539.629669	           32.992045	           -0.187775	            0.005846	           -0.708876	           -0.002978	            1.096315	            0.067027
            1.264000	           14.065550	          456.903702	          -23.205624	           -0.193251	            0.006458	           -0.458536	           -0.020170	           -0.655193	            0.033276	           -4.261730	          548.457135	           33.494041	           -0.187389	            0.005847	           -0.708980	           -0.008296	            1.067636	            0.065200
            1.264500	           11.861737	          464.658074	          -23.946475	           -0.192925	            0.006459	           -0.458688	           -0.019212	           -0.752604	            0.038786	           -7.244202	          557.098885	           34.230099	           -0.187428	            0.005848	           -0.709311	           -0.016090	            1.237380	            0.076029
            1.265000	           10.298617	          473.495676	          -25.051130	           -0.193043	            0.006460	           -0.458798	           -0.018358	           -0.844056	            0.044656	           -9.898766	          565.742276	           34.872162	           -0.187306	            0.005849	           -0.709304	           -0.025923	            1.481573	            0.091324
            1.265500	            8.828923	          482.150111	          -25.468946	           -0.193031	            0.006458	           -0.458523	           -0.013870	           -0.757432	            0.040010	          -11.800991	          573.651019	           35.698991	           -0.187166	            0.005849	           -0.709203	           -0.035932	            1.746659	            0.108697
            1.266000	            7.175597	          490.985200	          -25.977246	           -0.193321	            0.006458	           -0.458421	           -0.010113	           -0.691979	            0.036612	          -13.282211	          581.745320	           36.573225	           -0.187022	            0.005850	           -0.709298	           -0.040649	            1.780371	            0.111929
            1.266500	            4.697667	          499.819085	          -26.254218	           -0.193036	            0.006457	           -0.458192	           -0.006315	           -0.671909	            0.035294	          -14.014538	          590.026741	           37.353941	           -0.186985	            0.005850	           -0.709190	           -0.034233	            1.441236	            0.091243
